<svg width="20" height="20" viewBox="0 0 20 20" fill="none" xmlns="http://www.w3.org/2000/svg">
  <path d="M14.3033 10.5C14.3133 9.30667 14.8767 8.17667 15.84 7.48C15.2633 6.63667 14.3433 6.10667 13.3333 6.07C12.2633 5.96 11.2433 6.72 10.7033 6.72C10.1433 6.72 9.31 6.08667 8.41667 6.10667C7.22333 6.12667 6.14 6.78 5.56667 7.82C4.36667 9.93333 5.25 13.0633 6.40333 14.7633C6.98 15.5967 7.66 16.5233 8.55333 16.49C9.42 16.4533 9.75 15.9033 10.8033 15.9033C11.8433 15.9033 12.1533 16.49 13.06 16.4667C13.9933 16.4533 14.5833 15.63 15.14 14.79C15.5967 14.1433 15.9433 13.4267 16.1667 12.6667C15.0033 12.1633 14.3033 11.4 14.3033 10.5Z" fill="black"/>
  <path d="M12.6667 5C13.1333 4.44 13.3933 3.73333 13.3933 3C12.6867 3.03333 12.02 3.33 11.5467 3.82C11.0867 4.29333 10.7933 4.98667 10.8267 5.7C11.5733 5.73333 12.2 5.56 12.6667 5Z" fill="black"/>
</svg>
